<?xml version="1.0" encoding="UTF-8"?>
<svg width="80px" height="97px" viewBox="0 0 45 56" version="1.1" xmlns="http://www.w3.org/2000/svg" xmlns:xlink="http://www.w3.org/1999/xlink">
    <g fill="#333" fill-rule="nonzero">
        <path d="M42.9409142,47.188876 C37.8278801,52.0955883 30.9359188,54.9 23.5849038,54.9 C16.2333818,54.9 9.34139172,52.0955765 4.22888393,47.1888741 L7.38167032,44.1389699 C11.6635218,48.2441736 17.4321801,50.5898576 23.5849038,50.5898576 C29.7372543,50.5898576 35.5060496,48.2440803 39.7876363,44.1389699 L42.9409142,47.188876 Z" id="Path"></path>
        <path d="M23.5848784,-7.99360578e-15 L23.5848784,0.1 C30.9362262,0.1 37.8277398,2.90427856 42.9409141,7.811124 L39.787631,10.8610315 C35.5058194,6.7558728 29.7371775,4.41014243 23.5848784,4.41014243 C17.4321211,4.41014243 11.6634549,6.75588547 7.38217283,10.8610315 L4.2288932,7.81112369 C9.34206322,2.90428298 16.2335742,0.1 23.5848784,0.1 L23.5848784,-7.99360578e-15 Z" id="Path"></path>
        <path d="M12.3235382,26.6555863 C12.3281982,26.5276397 12.3119726,26.3644615 12.2648741,26.1562179 C12.1866827,25.8104985 12.0471585,25.4647986 11.8308281,25.1417932 C11.2144885,24.2215296 10.1127101,23.670767 8.41911507,23.670767 L8.31911514,23.7706473 L8.31331822,28.6156492 L4.32847909,28.6156492 C4.54237571,28.0990002 5.50203769,26.0750574 6.93707444,23.1010204 L6.98163764,23.0086767 C7.5736232,21.7821108 8.20790291,20.4735606 8.84218393,19.1687726 C9.06418328,18.7120948 9.27032521,18.288508 9.45532349,17.9087299 C9.64560466,17.5182412 9.64560466,17.5182412 9.68788039,17.4315888 L9.63206648,17.2937205 C7.72002233,16.6010549 6.34607764,16.8551576 5.43641103,17.7056486 C5.24757191,17.8822033 5.09546409,18.0714196 4.97668057,18.2609415 C4.90478551,18.3756518 4.85959373,18.4659934 4.83777353,18.5198251 C4.80352648,18.5890366 4.80352648,18.5890366 4.63629373,18.9297136 C4.41328545,19.3839512 4.41328545,19.3839512 4.09725722,20.0274559 C3.53950739,21.1630508 2.98139183,22.2986449 2.45997364,23.3585285 L2.45114532,23.3764737 C1.527297,25.2543517 0.82200843,26.6844483 0.422502438,27.4885924 C-0.850227447,30.0505095 0.932005686,32.6512084 3.37493541,32.6512084 L3.95291248,32.6506439 C4.55045084,32.6500794 4.55045084,32.6500794 5.31861337,32.6494021 L6.00654232,32.6488318 C7.08695634,32.6479727 7.89209966,32.6475196 8.31319864,32.6476056 L8.31319864,35.8463805 L8.3974504,35.9451327 C9.0465144,36.0486404 9.68226209,36.1 10.3049351,36.1 C10.9461322,36.1 11.5908633,36.0486478 12.2393132,35.9451301 L12.323549,35.8463985 L12.3238025,34.3776869 L12.3238376,34.1647159 C12.3239938,33.1803789 12.3240033,33.1207767 12.3240471,32.6481095 C12.4205497,32.6414534 12.5530554,32.6233851 12.7118832,32.5870893 C13.0559856,32.5084539 13.4000571,32.3681423 13.7215122,32.1506105 C14.6370781,31.5310379 15.1849038,30.4237338 15.1849038,28.7215969 L15.0851119,28.6215971 L12.3267192,28.6158574 C12.3287188,27.0452739 12.3289543,26.6392523 12.3235382,26.6555863 Z M12.3235382,26.6555863 C12.3281982,26.5276397 12.3119726,26.3644615 12.2648741,26.1562179 C12.1866827,25.8104985 12.0471585,25.4647986 11.8308281,25.1417932 C11.2144885,24.2215296 10.1127101,23.670767 8.41911507,23.670767 L8.31911514,23.7706473 L8.31331822,28.6156492 L4.32847909,28.6156492 C4.54237571,28.0990002 5.50203769,26.0750574 6.93707444,23.1010204 L6.98163764,23.0086767 C7.5736232,21.7821108 8.20790291,20.4735606 8.84218393,19.1687726 C9.06418328,18.7120948 9.27032521,18.288508 9.45532349,17.9087299 C9.64560466,17.5182412 9.64560466,17.5182412 9.68788039,17.4315888 L9.63206648,17.2937205 C7.72002233,16.6010549 6.34607764,16.8551576 5.43641103,17.7056486 C5.24757191,17.8822033 5.09546409,18.0714196 4.97668057,18.2609415 C4.90478551,18.3756518 4.85959373,18.4659934 4.83777353,18.5198251 C4.80352648,18.5890366 4.80352648,18.5890366 4.63629373,18.9297136 C4.41328545,19.3839512 4.41328545,19.3839512 4.09725722,20.0274559 C3.53950739,21.1630508 2.98139183,22.2986449 2.45997364,23.3585285 L2.45114532,23.3764737 C1.527297,25.2543517 0.82200843,26.6844483 0.422502438,27.4885924 C-0.850227447,30.0505095 0.932005686,32.6512084 3.37493541,32.6512084 L3.95291248,32.6506439 C4.55045084,32.6500794 4.55045084,32.6500794 5.31861337,32.6494021 L6.00654232,32.6488318 C7.08695634,32.6479727 7.89209966,32.6475196 8.31319864,32.6476056 L8.31319864,35.8463805 L8.3974504,35.9451327 C9.0465144,36.0486404 9.68226209,36.1 10.3049351,36.1 C10.9461322,36.1 11.5908633,36.0486478 12.2393132,35.9451301 L12.323549,35.8463985 L12.3238025,34.3776869 L12.3238376,34.1647159 C12.3239938,33.1803789 12.3240033,33.1207767 12.3240471,32.6481095 C12.4205497,32.6414534 12.5530554,32.6233851 12.7118832,32.5870893 C13.0559856,32.5084539 13.4000571,32.3681423 13.7215122,32.1506105 C14.6370781,31.5310379 15.1849038,30.4237338 15.1849038,28.7215969 L15.0851119,28.6215971 L12.3267192,28.6158574 C12.3287188,27.0452739 12.3289543,26.6392523 12.3235382,26.6555863 Z M13.6094231,31.9849722 C13.3098748,32.1876795 12.9885856,32.3187006 12.6673272,32.3921155 C12.4754086,32.4359734 12.3273656,32.4508472 12.2455885,32.4512094 L12.2240561,32.4512084 L12.1240561,32.5512084 C12.1240039,33.1169033 12.1240039,33.1169033 12.1238376,34.1646832 L12.1238025,34.3776537 L12.1235637,35.7607811 C11.5139242,35.8538359 10.9077968,35.9 10.3049351,35.9 C9.71984918,35.9 9.12269817,35.8538386 8.51319864,35.7607784 L8.51319864,32.5476399 L8.41324936,32.4476399 C8.02837436,32.4474447 7.17970734,32.4478989 6.0063833,32.4488318 L5.31844141,32.4494021 C4.55026745,32.4500795 4.55026745,32.4500795 3.95272145,32.450644 L3.37483429,32.4512085 C1.07568991,32.4512084 -0.602774646,30.0019324 0.60161666,27.5775761 C1.00127581,26.7731237 1.70664108,25.3428716 2.63060389,23.4647608 L2.63943264,23.4468148 C3.16087216,22.3868879 3.719006,21.2512565 4.27677348,20.1156257 C4.59281072,19.4721027 4.59281072,19.4721027 4.81582634,19.0178501 L5.02022196,18.6014462 C5.09699321,18.4127201 5.2725006,18.1326939 5.5730007,17.8517419 C6.41033171,17.0688809 7.67199625,16.8235595 9.45904964,17.4445336 C9.43121782,17.5016294 9.38466905,17.5971553 9.27552145,17.8211444 C9.09050029,18.2009695 8.88433483,18.6246046 8.66231085,19.0813331 C8.02795376,20.3862776 7.39359537,21.69499 6.8015187,22.9217447 L6.7569474,23.0141053 C5.09792303,26.4523445 4.1273509,28.5061129 4.08823179,28.6954116 L4.18616256,28.8156492 L8.41319864,28.8156492 L8.51319857,28.7157689 L8.51899471,23.8714261 C10.0904792,23.8922994 11.0985186,24.4077834 11.6646543,25.2530868 C11.8663567,25.5542509 11.9967406,25.877304 12.0698011,26.2003376 C12.1134538,26.3933457 12.1282604,26.5422523 12.1286212,26.6245515 C12.1274055,26.6116295 12.1270126,27.0726993 12.1265917,28.7155652 L12.2263836,28.815649 L14.9842563,28.8213877 C14.9636134,30.4019173 14.4505813,31.4157521 13.6094231,31.9849722 Z" id="Fill-3"></path>
        <path d="M29.9849038,17.1506014 L30.069903,17.0517329 C30.7379698,16.9503703 31.3997806,16.9 32.0568013,16.9 C32.6947252,16.9 33.3478935,16.9504066 34.0162351,17.0517312 L34.1012458,17.1506014 L34.1012458,30.6600034 C34.1012458,31.1750184 34.1332913,31.5885878 34.1968429,31.8992488 C34.2584138,32.2044512 34.3544312,32.4382841 34.4826932,32.601309 C34.6093551,32.7612517 34.7730052,32.871726 34.9741086,32.9315091 C35.1876589,32.995716 35.4565698,33.0284093 35.7792234,33.0284093 C35.926205,33.0284093 36.0856054,33.0203384 36.2563051,33.0039811 C36.4351281,32.9865008 36.6019972,32.9619375 36.7587263,32.9293662 L36.8749704,32.9989233 C37.0813956,33.6971555 37.1849038,34.3788313 37.1849038,35.0428596 L37.1849038,35.4072506 C37.1849038,35.5268127 37.1650835,35.6567088 37.0562816,35.8694077 C36.751951,35.955286 36.38926,36.0151058 35.9674038,36.0490353 C35.5401104,36.0828956 35.1552456,36.1 34.8073509,36.1 C33.3591357,36.1 32.1938514,35.7362345 31.3124616,35.0062053 C30.425814,34.2718971 29.9849038,33.080512 29.9849038,31.4414704 L29.9849038,17.1506014 Z M29.9849038,17.1506014 L30.069903,17.0517329 C30.7379698,16.9503703 31.3997806,16.9 32.0568013,16.9 C32.6947252,16.9 33.3478935,16.9504066 34.0162351,17.0517312 L34.1012458,17.1506014 L34.1012458,30.6600034 C34.1012458,31.1750184 34.1332913,31.5885878 34.1968429,31.8992488 C34.2584138,32.2044512 34.3544312,32.4382841 34.4826932,32.601309 C34.6093551,32.7612517 34.7730052,32.871726 34.9741086,32.9315091 C35.1876589,32.995716 35.4565698,33.0284093 35.7792234,33.0284093 C35.926205,33.0284093 36.0856054,33.0203384 36.2563051,33.0039811 C36.4351281,32.9865008 36.6019972,32.9619375 36.7587263,32.9293662 L36.8749704,32.9989233 C37.0813956,33.6971555 37.1849038,34.3788313 37.1849038,35.0428596 L37.1849038,35.4072506 C37.1849038,35.5268127 37.1650835,35.6567088 37.0562816,35.8694077 C36.751951,35.955286 36.38926,36.0151058 35.9674038,36.0490353 C35.5401104,36.0828956 35.1552456,36.1 34.8073509,36.1 C33.3591357,36.1 32.1938514,35.7362345 31.3124616,35.0062053 C30.425814,34.2718971 29.9849038,33.080512 29.9849038,31.4414704 L29.9849038,17.1506014 Z M30.1849038,31.4414704 C30.1849038,33.0258032 30.6048216,34.1604649 31.4400338,34.852175 C32.2829399,35.5503293 33.403073,35.9 34.8073509,35.9 C35.1496121,35.9 35.5292887,35.8831262 35.9514871,35.8496697 C36.3610585,35.8167282 36.7111722,35.7589828 36.9327413,35.7465115 C36.9677725,35.6198397 36.9849038,35.5075666 36.9849038,35.4072506 L36.9849038,35.0428596 C36.9849038,34.4261455 36.8927289,33.7926654 36.7084907,33.1430278 C36.5713831,33.1683906 36.4274673,33.1882029 36.2755729,33.2030507 C36.0985179,33.2200172 35.932774,33.2284093 35.7792234,33.2284093 C35.4384057,33.2284093 35.1506044,33.1934193 34.9168206,33.1231285 C34.6766746,33.0517396 34.478148,32.9177214 34.3257067,32.7252248 C34.1757731,32.5346557 34.0680999,32.2724371 34.0008467,31.9390662 C33.9342746,31.6136419 33.9012458,31.1873821 33.9012458,30.6600034 L33.9012458,17.2368499 C33.2723442,17.1454501 32.6575272,17.1 32.0568013,17.1 C31.4377297,17.1 30.8142158,17.1454264 30.1849038,17.2368475 L30.1849038,31.4414704 Z" id="Fill-4"></path>
        <path d="M37.9849038,17.1506014 L38.0699026,17.051733 C38.737953,16.9503703 39.3997475,16.9 40.0567521,16.9 C40.6946602,16.9 41.3478125,16.9504066 42.0161376,17.0517312 L42.1011479,17.1506014 L42.1011479,30.6600034 C42.1011479,31.1750185 42.1331927,31.5885881 42.1967427,31.8992493 C42.2582588,32.2041874 42.354227,32.4382076 42.4818325,32.6010218 C42.6101562,32.7618472 42.7731045,32.8719306 42.9739878,32.9315093 C43.1876685,32.995757 43.4561088,33.0284093 43.7790811,33.0284093 C43.9261167,33.0284093 44.0854973,33.0203327 44.2556547,33.0039783 C44.4347661,32.9865217 44.6016715,32.9619713 44.7585586,32.9293663 L44.8748034,32.998924 C45.0813124,33.6974571 45.1849038,34.3791138 45.1849038,35.0428596 L45.1849038,35.4072506 C45.1849038,35.5265552 45.1650038,35.6563664 45.0561088,35.8694076 C44.7517854,35.9552859 44.3891032,36.0151058 43.9672572,36.0490353 C43.5398938,36.082902 43.1550508,36.1 42.8067083,36.1 C41.3589866,36.1 40.1937561,35.7362004 39.3124284,35.0062045 C38.4258028,34.2718962 37.9849038,33.0805115 37.9849038,31.4414704 L37.9849038,17.1506014 Z M37.9849038,17.1506014 L38.0699026,17.051733 C38.737953,16.9503703 39.3997475,16.9 40.0567521,16.9 C40.6946602,16.9 41.3478125,16.9504066 42.0161376,17.0517312 L42.1011479,17.1506014 L42.1011479,30.6600034 C42.1011479,31.1750185 42.1331927,31.5885881 42.1967427,31.8992493 C42.2582588,32.2041874 42.354227,32.4382076 42.4818325,32.6010218 C42.6101562,32.7618472 42.7731045,32.8719306 42.9739878,32.9315093 C43.1876685,32.995757 43.4561088,33.0284093 43.7790811,33.0284093 C43.9261167,33.0284093 44.0854973,33.0203327 44.2556547,33.0039783 C44.4347661,32.9865217 44.6016715,32.9619713 44.7585586,32.9293663 L44.8748034,32.998924 C45.0813124,33.6974571 45.1849038,34.3791138 45.1849038,35.0428596 L45.1849038,35.4072506 C45.1849038,35.5265552 45.1650038,35.6563664 45.0561088,35.8694076 C44.7517854,35.9552859 44.3891032,36.0151058 43.9672572,36.0490353 C43.5398938,36.082902 43.1550508,36.1 42.8067083,36.1 C41.3589866,36.1 40.1937561,35.7362004 39.3124284,35.0062045 C38.4258028,34.2718962 37.9849038,33.0805115 37.9849038,31.4414704 L37.9849038,17.1506014 Z M38.1849038,31.4414704 C38.1849038,33.0258036 38.6048113,34.1604658 39.4400025,34.8521758 C40.2828484,35.5502976 41.4029264,35.9 42.8067083,35.9 C43.1494184,35.9 43.5290725,35.8831325 43.9513402,35.8496697 C44.360901,35.8167283 44.7110057,35.7589829 44.9325676,35.7465122 C44.9677014,35.6194666 44.9849038,35.5072525 44.9849038,35.4072506 L44.9849038,35.0428596 C44.9849038,34.4264125 44.892651,33.7929472 44.7083237,33.1430276 C44.5710745,33.1684148 44.4270549,33.1882209 44.2749223,33.203048 C44.098442,33.2200102 43.9326974,33.2284093 43.7790811,33.2284093 C43.4379422,33.2284093 43.1506085,33.1934588 42.9167602,33.1231467 C42.6769194,33.0520146 42.4792861,32.918499 42.3249601,32.7250794 C42.1754927,32.5343785 42.0679239,32.2720699 42.0007463,31.9390657 C41.9341759,31.6136416 41.9011479,31.1873819 41.9011479,30.6600034 L41.9011479,17.2368496 C41.2722629,17.14545 40.6574622,17.1 40.0567521,17.1 C39.4376968,17.1 38.8141993,17.1454263 38.1849038,17.2368472 L38.1849038,31.4414704 Z" id="Fill-5"></path>
        <path d="M24.1161147,27.240635 C24.1161147,26.8122644 24.0444941,26.4672266 23.9033898,26.206433 C23.7630324,25.94547 23.5702534,25.7422115 23.3226744,25.5932121 C23.0736277,25.4432227 22.7634651,25.3410151 22.3933099,25.2880611 L22.3000724,25.2746183 C21.7898129,25.2014025 21.4902081,25.178374 21.1394474,25.2055223 C19.3441384,25.3448788 18.1951792,25.0275264 17.5686967,24.3608725 C17.1417991,23.9066013 17.0222928,23.4254528 17.0222928,22.8051686 L17.0902042,22.7104569 C17.915676,22.4307846 18.7430725,22.2260791 19.5739569,22.0955554 C20.4022813,21.9651785 21.1727673,21.9 21.8884869,21.9 C23.85476,21.9 25.3962303,22.3689885 26.5088505,23.3096108 C27.6277922,24.2562572 28.1849038,25.7624493 28.1849038,27.8221075 L28.1849038,36.1400662 L28.1146537,36.2355384 C27.4607725,36.4392923 26.665192,36.6335095 25.7212186,36.820512 C24.7761143,37.0066627 23.7135458,37.1 22.5338059,37.1 C21.5753395,37.1 20.694357,37.0159814 19.8911834,36.8482468 C19.0834238,36.6786551 18.3896673,36.3964417 17.8084748,36.0001229 C17.2252245,35.6039701 16.7748017,35.0920985 16.45779,34.465776 C16.1422831,33.8407398 15.9849038,33.0761566 15.9849038,32.1748252 C15.9849038,31.2700873 16.1812103,30.5072531 16.5752865,29.888842 C16.9666122,29.2761741 17.4743086,28.7837364 18.0943279,28.4158012 C18.708983,28.0507365 19.3964602,27.7883818 20.1575416,27.6272358 C20.9140987,27.4686848 21.6685265,27.3892244 22.4214784,27.3892244 C22.9334758,27.3892244 23.4966086,27.4143036 24.1161147,27.4643867 L24.1161147,27.240635 Z M24.1161147,27.240635 C24.1161147,26.8122644 24.0444941,26.4672266 23.9033898,26.206433 C23.7630324,25.94547 23.5702534,25.7422115 23.3226744,25.5932121 C23.0736277,25.4432227 22.7634651,25.3410151 22.3933099,25.2880611 L22.3000724,25.2746183 C21.7898129,25.2014025 21.4902081,25.178374 21.1394474,25.2055223 C19.3441384,25.3448788 18.1951792,25.0275264 17.5686967,24.3608725 C17.1417991,23.9066013 17.0222928,23.4254528 17.0222928,22.8051686 L17.0902042,22.7104569 C17.915676,22.4307846 18.7430725,22.2260791 19.5739569,22.0955554 C20.4022813,21.9651785 21.1727673,21.9 21.8884869,21.9 C23.85476,21.9 25.3962303,22.3689885 26.5088505,23.3096108 C27.6277922,24.2562572 28.1849038,25.7624493 28.1849038,27.8221075 L28.1849038,36.1400662 L28.1146537,36.2355384 C27.4607725,36.4392923 26.665192,36.6335095 25.7212186,36.820512 C24.7761143,37.0066627 23.7135458,37.1 22.5338059,37.1 C21.5753395,37.1 20.694357,37.0159814 19.8911834,36.8482468 C19.0834238,36.6786551 18.3896673,36.3964417 17.8084748,36.0001229 C17.2252245,35.6039701 16.7748017,35.0920985 16.45779,34.465776 C16.1422831,33.8407398 15.9849038,33.0761566 15.9849038,32.1748252 C15.9849038,31.2700873 16.1812103,30.5072531 16.5752865,29.888842 C16.9666122,29.2761741 17.4743086,28.7837364 18.0943279,28.4158012 C18.708983,28.0507365 19.3964602,27.7883818 20.1575416,27.6272358 C20.9140987,27.4686848 21.6685265,27.3892244 22.4214784,27.3892244 C22.9334758,27.3892244 23.4966086,27.4143036 24.1161147,27.4643867 L24.1161147,27.240635 Z M17.7144411,24.2239105 C18.2934857,24.8400848 19.3836858,25.1412074 21.1239917,25.0061203 C21.4931871,24.9775453 21.8046824,25.0014877 22.3284789,25.0766459 L22.4217511,25.0900937 C22.8168859,25.1466212 23.1523616,25.2571702 23.4258304,25.4218679 C23.7042963,25.5894558 23.9222324,25.819239 24.0794112,26.1114782 C24.237837,26.4042854 24.3161147,26.7813941 24.3161147,27.240635 L24.3161147,27.5730031 L24.2076816,27.6726469 C23.5506194,27.6170386 22.957222,27.5892244 22.4214784,27.5892244 C21.6824229,27.5892244 20.9417366,27.6672375 20.198767,27.8229407 C19.4587963,27.9796171 18.7918423,28.2341398 18.1964267,28.5877775 C17.6033295,28.9397364 17.118378,29.4101128 16.7438951,29.9964112 C16.3716425,30.5805753 16.1849038,31.3062298 16.1849038,32.1748252 C16.1849038,33.0466431 16.335991,33.780658 16.6362835,34.3755538 C16.9379342,34.9715272 17.3656149,35.4575542 17.9210001,35.8347808 C18.479721,36.2157759 19.1491549,36.488095 19.9321737,36.6524924 C20.7212434,36.8172815 21.5885937,36.9 22.5338059,36.9 C23.7011446,36.9 24.7508838,36.8077896 25.6824611,36.6243034 C26.5861537,36.4452805 27.3518421,36.2598552 27.9849042,36.0662779 L27.9849042,27.8221075 C27.9849042,25.8166512 27.4485547,24.366592 26.379701,23.462321 C25.3066174,22.5551234 23.8107189,22.1 21.8884869,22.1 C21.1836357,22.1 20.4234732,22.1643052 19.605024,22.2931277 C18.808422,22.418266 18.014893,22.6125762 17.2228797,22.8768487 C17.2318901,23.4158826 17.3467837,23.8326782 17.7144411,24.2239105 Z M23.4763282,30.098398 C23.2219946,30.0708046 22.9918146,30.0572637 22.7862391,30.0572637 C21.8868074,30.0572637 21.1803278,30.2150537 20.6648893,30.5278805 C20.163555,30.8325697 19.9136395,31.3222821 19.9136395,32.0089845 C19.9136395,32.4692262 20.0103172,32.8163716 20.2009037,33.0554404 C20.3959175,33.3017928 20.6296377,33.4807612 20.9037819,33.5937693 C21.1840239,33.710302 21.482713,33.7816588 21.798859,33.8072408 C22.1337662,33.8356873 22.4128866,33.8499731 22.6456126,33.8499731 C22.917616,33.8499731 23.1921308,33.8271137 23.4710487,33.7817426 C23.7022012,33.744118 23.9170785,33.7073539 24.1161147,33.6715919 L24.1161147,30.1809257 C23.9228746,30.150559 23.7113857,30.1233848 23.4763282,30.098398 Z" id="Fill-6"></path>
    </g>
</svg>
